<svg xmlns="http://www.w3.org/2000/svg" width="40" height="40" fill="none"><g clip-path="url(#a)"><path fill="currentColor" d="M26.79 6.302c-2.317-1.844-4.505-3.587-6.152-5.555l-.628-.75-.64.74c-2.485 2.87-3.175 6.368-3.73 9.18-.675 3.418-1.09 5.061-3.14 5.061-.33 0-.583-.115-.82-.373-1.012-1.105-1.145-4.31-.99-6.072l.205-2.338L9.262 7.88C6.898 10.318 2.5 14.857 2.5 22.498c0 9.65 7.85 17.5 17.5 17.5s17.5-7.85 17.5-17.5c0-7.671-5.445-12.005-10.71-16.196m-11.503 30.08c-2.6-2.604-2.6-6.835-.037-9.399l4.752-4.203 4.713 4.17c2.598 2.602 2.598 6.833 0 9.432-2.598 2.598-6.828 2.601-9.428 0m11.071.608a8.33 8.33 0 0 0-.501-11.253l-5.855-5.184-5.894 5.217c-3.071 3.07-3.201 7.943-.465 11.218-5.571-2.455-9.475-8.021-9.475-14.49 0-5.388 2.284-8.993 4.814-11.87.06 1.692.368 3.897 1.47 5.1.548.599 1.255.915 2.048.915 3.512 0 4.127-3.111 4.775-6.406.49-2.487 1.04-5.274 2.758-7.659 1.64 1.777 3.629 3.36 5.719 5.024 4.956 3.946 10.081 8.026 10.081 14.895 0 6.47-3.905 12.036-9.476 14.491z"/></g><defs><clipPath id="a"><path fill="#fff" d="M0 0h40v40H0z"/></clipPath></defs></svg>