<svg xmlns="http://www.w3.org/2000/svg" width="40" height="40" fill="none"><g clip-path="url(#a)"><path fill="currentColor" d="M39.983 17.872c-.075-.04-2.318-1.205-5.833-1.205-5.052 0-8.845 3.97-10.172 5.571a9 9 0 0 0-3.161-.571c-3.115 0-6.07 1.67-8.097 3.171.347-1.391.563-2.99.657-4.84 5.493-.025 9.955-4.498 9.955-9.998S18.848 0 13.333 0s-10 4.485-10 10c0 1.07.174 2.098.485 3.065C.502 19.978 0 27.173 0 30.698.26 31.07 6.655 40 19.167 40c12.331 0 20.493-5.368 20.818-5.587zM13.333 1.667c4.595 0 8.334 3.738 8.334 8.333s-3.739 8.333-8.334 8.333S5 14.595 5 10s3.738-8.333 8.333-8.333m5.834 36.666c-10.597 0-16.499-6.898-17.5-8.175.025-3.226.516-9.066 3.08-15.058a10 10 0 0 0 6.971 4.757c-.148 3.065-.791 5.54-1.678 7.31l1.215 1.143c.047-.05 4.742-4.977 9.563-4.977 3.877 0 6.294 3.129 6.319 3.16l1.333-1.001c-.07-.094-1.115-1.432-2.935-2.5 1.367-1.554 4.602-4.66 8.617-4.66 2.118 0 3.506.37 4.166.598v14.572c-1.663.986-8.813 4.83-19.15 4.83zm-5.834-25A3.337 3.337 0 0 0 16.667 10a3.337 3.337 0 0 0-3.334-3.333A3.337 3.337 0 0 0 10 10a3.337 3.337 0 0 0 3.333 3.333m0-5A1.67 1.67 0 0 1 15 10a1.67 1.67 0 0 1-1.667 1.667A1.67 1.67 0 0 1 11.667 10a1.67 1.67 0 0 1 1.666-1.667"/></g><defs><clipPath id="a"><path fill="#fff" d="M0 0h40v40H0z"/></clipPath></defs></svg>