<svg xmlns="http://www.w3.org/2000/svg" width="40" height="40" fill="none"><g clip-path="url(#a)"><path fill="currentColor" d="M15.707 13.333h3.091L16.298 20h2.5l9.144-9.697a2.34 2.34 0 0 0-1.952-3.635h-3.08L25.645 0h-8.18l-4.028 10.277c-.22.725-.087 1.49.365 2.098a2.35 2.35 0 0 0 1.905.958m-.697-2.511 3.592-9.155h4.558l-2.735 6.666h5.565c.365 0 .538.249.595.357.058.105.17.387.057.58l-7.529 7.97 2.09-5.573h-5.496a.7.7 0 0 1-.567-.285c-.133-.18-.173-.409-.13-.56M40 28.333h-1.667v-6.666h-5v-3.334h-6.666v10H13.333v-10H6.667v3.334h-5v6.666H0V30h1.667v6.667h5V40h6.666V30h13.334v10h6.666v-3.333h5V30H40zM3.333 35V23.333h3.334V35zm8.334 3.333H8.333V20h3.334zm20 0h-3.334V20h3.334zm5-3.333h-3.334V23.333h3.334z"/></g><defs><clipPath id="a"><path fill="#fff" d="M0 0h40v40H0z"/></clipPath></defs></svg>