<svg xmlns="http://www.w3.org/2000/svg" width="40" height="40" fill="none"><g clip-path="url(#a)"><path fill="currentColor" d="M39.942 23.202c-1.238 7.285-6.007 13.376-13.083 16.718l-.17.08-13.549-.08C6.067 36.58 1.297 30.487.06 23.203a4.16 4.16 0 0 1 .928-3.385 4.17 4.17 0 0 1 2.525-1.431 8.4 8.4 0 0 1-.178-1.72c0-2.759 1.291-5.26 3.363-6.779.008.009.005.005 0 0a5.8 5.8 0 0 1 0-8.191A5.76 5.76 0 0 1 10.785.002c2.74 0 4.179 1.771 4.215 1.81.037-.039 1.442-1.81 4.199-1.81a5.8 5.8 0 0 1 4.105 1.695c1.308 1.308 1.901 3.115 1.661 4.856 1.477-.943 3.369-2.87 3.369-6.553H30c0 2.737-.898 4.685-2.018 6.05 3.817-.853 7.548-1.037 7.815-1.048l.915-.042-.045.913c-.013.309-.367 7.057-2.795 12.46h1.948c1.234 0 2.397.542 3.195 1.485a4.15 4.15 0 0 1 .927 3.384M23.079 9.533a23 23 0 0 1-1.187.914 6.56 6.56 0 0 0-1.53 6.781c.13.28.428.807.688 1.105h1.107l5.59-5.59 1.178 1.179-4.41 4.41h7.515c2.037-4.09 2.707-9.465 2.904-11.605-2.367.185-8.594.845-11.852 2.805zM7.875 8.71q.18.177.404.345a8.3 8.3 0 0 1 3.388-.722 8.34 8.34 0 0 1 7.123 4.012 8.2 8.2 0 0 1 1.964-3.118 7.2 7.2 0 0 1 1.268-.99c.555-.464.98-.874 1.07-1.052.568-1.457.19-3.153-.967-4.31a4.13 4.13 0 0 0-5.835 0c-.561.562-1.29 1.89-1.29 1.89s-.775-1.375-1.29-1.89a4.13 4.13 0 0 0-5.835 0 4.13 4.13 0 0 0 0 5.835M5 16.667c0 .566.07 1.128.21 1.666h12.914A6.673 6.673 0 0 0 11.667 10 6.673 6.673 0 0 0 5 16.667m32.742 4.228A2.51 2.51 0 0 0 35.82 20H4.182c-.74 0-1.442.325-1.922.895a2.5 2.5 0 0 0-.556 2.03c1.136 6.682 5.5 12.288 11.983 15.41h12.627c6.485-3.122 10.848-8.728 11.983-15.41a2.5 2.5 0 0 0-.557-2.028z"/></g><defs><clipPath id="a"><path fill="#fff" d="M0 0h40v40H0z"/></clipPath></defs></svg>